<?xml version="1.0" encoding="utf-8"?>
<!-- Generator: Adobe Illustrator 25.0.0, SVG Export Plug-In . SVG Version: 6.00 Build 0)  -->
<svg version="1.1" xmlns="http://www.w3.org/2000/svg" xmlns:xlink="http://www.w3.org/1999/xlink" x="0px" y="0px"
	 viewBox="0 0 147 47" style="enable-background:new 0 0 147 47;" xml:space="preserve">
<style type="text/css">
	.st0{display:none;}
	.st1{display:inline;}
	.st2{fill-rule:evenodd;clip-rule:evenodd;fill:#EB2127;}
	.st3{fill-rule:evenodd;clip-rule:evenodd;fill:#0C4E97;}
	.st4{fill-rule:evenodd;clip-rule:evenodd;fill:#FFFFFF;}
</style>
<g id="Blue" class="st0">
	<g class="st1">
		<path class="st2" d="M61.37,14.8L69,7.18c0.38-0.38,0.99-0.38,1.37,0l7.63,7.63c0.38,0.38,0.38,0.99,0,1.37l-7.63,7.63
			c-0.38,0.38-0.99,0.38-1.37,0l-7.63-7.63C60.99,15.8,60.99,15.18,61.37,14.8"/>
		<path class="st3" d="M111.71,30.45c-0.14,0.1-0.28,0.21-0.42,0.31c-0.33,0.25-0.69,0.48-1.07,0.66c-0.44,0.22-0.91,0.41-1.38,0.54
			c-0.58,0.16-1.28,0.19-1.88,0.19c-0.66,0-1.3-0.12-1.91-0.36c-0.6-0.24-1.14-0.58-1.59-1.02c-0.46-0.45-0.8-1-1.05-1.58
			c-0.27-0.63-0.39-1.29-0.39-1.97c0-0.96,0.19-1.9,0.71-2.73c0.52-0.83,1.34-1.4,2.26-1.8c0.99-0.43,2.07-0.67,3.14-0.8
			c1.19-0.14,2.38-0.24,3.58-0.31v-0.24c0-0.43-0.05-0.91-0.25-1.3c-0.15-0.3-0.37-0.55-0.67-0.73c-0.34-0.21-0.72-0.32-1.11-0.37
			c-0.48-0.07-0.96-0.1-1.44-0.1c-0.68,0-1.39,0.11-2.06,0.25c-0.82,0.18-1.62,0.44-2.39,0.75l-0.05,0.02h-0.47v-2.96l0.19-0.05
			c0.68-0.18,1.4-0.31,2.09-0.44c0.89-0.16,1.8-0.24,2.71-0.24c0.91,0,1.86,0.05,2.75,0.24c0.75,0.16,1.45,0.46,2.07,0.9
			c0.61,0.44,1.06,1,1.35,1.67c0.33,0.76,0.44,1.62,0.44,2.44v10.72h-3.14V30.45z M111.71,27.77v-3.66
			c-0.68,0.06-1.36,0.13-2.04,0.19c-0.73,0.07-1.52,0.17-2.23,0.38c-0.6,0.17-1.15,0.45-1.6,0.86c-0.45,0.41-0.6,0.97-0.6,1.55
			c0,0.63,0.15,1.27,0.66,1.71c0.53,0.46,1.3,0.58,2,0.58c0.74,0,1.44-0.14,2.1-0.47C110.61,28.59,111.19,28.21,111.71,27.77z"/>
		<path class="st3" d="M96.36,20.64c0.99,0.34,1.86,0.88,2.5,1.72c0.77,0.99,1.06,2.16,1.06,3.39c0,0.96-0.17,1.91-0.6,2.77
			c-0.39,0.78-0.94,1.44-1.64,1.98c-0.78,0.59-1.64,1.04-2.58,1.32c-1.11,0.3-2.36,0.37-3.5,0.37h-6.17V11.54h5.73
			c0.65,0,1.29,0.01,1.94,0.04c0.46,0.02,0.93,0.05,1.39,0.1c0.78,0.1,1.51,0.33,2.21,0.69c0.73,0.38,1.35,0.91,1.74,1.63
			c0.39,0.72,0.54,1.53,0.54,2.33c0,0.97-0.25,1.88-0.81,2.69C97.68,19.7,97.07,20.23,96.36,20.64 M88.69,14.36v5.35h2.84
			c0.58,0,1.27,0,1.84-0.11c0.42-0.1,0.81-0.28,1.17-0.5c0.36-0.22,0.62-0.52,0.78-0.9c0.19-0.45,0.24-0.98,0.24-1.46
			c0-0.39-0.06-0.79-0.23-1.15c-0.15-0.31-0.38-0.55-0.69-0.72c-0.42-0.23-0.89-0.36-1.38-0.41c-0.73-0.07-1.49-0.08-2.22-0.08
			H88.69z M88.69,22.47v6.9h1.96c0.91,0,1.89-0.02,2.79-0.16c0.62-0.1,1.2-0.3,1.72-0.64c0.43-0.29,0.81-0.64,1.05-1.1
			c0.25-0.48,0.32-1.08,0.32-1.62c0-0.58-0.07-1.22-0.31-1.75c-0.24-0.52-0.71-0.88-1.22-1.13l-0.01,0
			c-0.2-0.11-0.41-0.19-0.62-0.25c-0.23-0.07-0.47-0.11-0.7-0.15c-0.3-0.04-0.6-0.06-0.9-0.07c-0.41-0.02-0.82-0.02-1.23-0.02H88.69
			z"/>
		<polygon class="st3" points="135.63,25.03 134.87,25.73 134.87,32.18 131.71,32.18 131.71,11.54 134.87,11.54 134.87,22.56 
			140.68,16.58 144.71,16.58 138.01,23.16 145.49,32.18 141.35,32.18 		"/>
		<path class="st3" d="M120.04,20.78v11.41h-3.14v-15.6h3.14v1.37c0.59-0.47,1.23-0.9,1.91-1.22c0.79-0.38,1.63-0.57,2.51-0.57
			c1.48,0,2.8,0.44,3.77,1.56c1.06,1.21,1.35,2.87,1.35,4.41v10.05h-3.14v-8.85c0-0.64-0.03-1.28-0.1-1.91
			c-0.05-0.44-0.15-0.95-0.36-1.34c-0.18-0.32-0.44-0.57-0.77-0.74c-0.42-0.2-0.97-0.25-1.43-0.25c-0.66,0-1.29,0.19-1.88,0.48
			C121.24,19.9,120.62,20.31,120.04,20.78"/>
		<rect x="21.52" y="11.54" class="st3" width="4.6" height="20.64"/>
		<path class="st2" d="M59.05,32.18c-0.62-0.01-1.26-0.01-1.88-0.06c-1.25-0.11-2.42-0.22-3.62-0.61c-0.95-0.31-1.78-0.77-2.58-1.4
			c-0.24-0.19-0.45-0.41-0.66-0.62c-0.11-0.11-0.22-0.22-0.31-0.34c-1.04-1.32-1.66-2.65-1.97-4.32c-0.5-2.68-0.41-5.41,0.61-7.97
			c0.09-0.22,0.19-0.44,0.3-0.64c0.74-1.37,1.64-2.35,2.93-3.17c0.27-0.17,0.56-0.31,0.84-0.46c0.01-0.01,0.04-0.01,0.06-0.02
			c0.26-0.1,0.53-0.21,0.79-0.3c1.21-0.4,2.43-0.54,3.7-0.65c0.08,0,0.16,0,0.24,0c0.22-0.01,0.43-0.04,0.65-0.04
			c1.61-0.01,3.22,0,4.83,0c-0.84,0.87-1.96,2.13-2.95,3.2c-1.59,0.03-3.31-0.11-4.77,0.62c-0.55,0.27-0.55,0.29-0.76,0.47
			c-0.35,0.3-0.37,0.29-0.65,0.63c-0.48,0.58-0.8,1.18-1.07,1.9c-0.17,0.46-0.18,0.46-0.3,1.06c-0.42,1.94-0.34,3.92,0.28,5.8
			c0.12,0.35,0.28,0.68,0.45,1.02c0.14,0.26,0.38,0.58,0.41,0.6c0.01,0.01,0.01,0.01,0.02,0.02c0.73,1,1.69,1.49,2.84,1.79
			c0.54,0.14,1.35,0.32,1.9,0.32c2.07,0.02,4.14,0,6.22,0v3.2C62.74,32.18,60.89,32.19,59.05,32.18"/>
		<path class="st3" d="M39.68,26.78c0.01,0,0.02-0.01,0.02-0.02c0.31-0.47,0.58-0.93,0.77-1.46c0.82-2.32,0.78-4.97-0.13-7.25
			c-0.09-0.22-0.19-0.43-0.3-0.63c-0.47-0.8-0.94-1.34-1.7-1.84c-0.19-0.12-0.39-0.23-0.61-0.31c-1.52-0.59-3.17-0.5-4.77-0.51v4.98
			v7.04v2.22c1.83-0.02,3.64,0,5.29-0.89C38.85,27.76,39.25,27.34,39.68,26.78 M28.42,32.18c2.23,0,4.45,0.02,6.67,0
			c0.31,0,0.62-0.01,0.93-0.04c1.27-0.09,2.5-0.25,3.71-0.64c0.27-0.09,0.54-0.19,0.8-0.31c0.86-0.39,1.57-0.91,2.28-1.53
			c0.01-0.01,0.01-0.01,0.02-0.02c0.45-0.47,0.86-0.96,1.2-1.52c0.17-0.27,0.33-0.56,0.46-0.85c0.26-0.54,0.46-1.08,0.61-1.65
			c0.7-2.63,0.68-5.45-0.15-8.04c-0.34-1.06-0.84-1.94-1.52-2.81c-0.18-0.23-0.4-0.44-0.6-0.65c-0.01-0.01-0.01-0.01-0.02-0.02
			c-0.63-0.55-1.26-1-2-1.4c-0.01-0.01-0.02-0.01-0.03-0.02c-0.25-0.11-0.51-0.22-0.76-0.32c-1.3-0.47-2.58-0.65-3.96-0.76
			c-0.49-0.04-0.99-0.05-1.48-0.06c-2.06-0.02-4.11,0-6.16,0V32.18z"/>
		<path class="st3" d="M10.31,11.54c0.48,0,0.95,0.03,1.43,0.07c1.68,0.13,3.21,0.36,4.68,1.23c0.7,0.42,1.16,0.88,1.58,1.59
			c0.93,1.55,1.02,3.53,0.1,5.1c-0.23,0.4-0.53,0.72-0.89,1.01c-0.59,0.47-1.22,0.76-1.92,1c-0.32,0.11-0.33,0.1-0.34,0.11
			c0.72,0.19,1.39,0.41,2.06,0.77c0.43,0.23,0.78,0.5,1.12,0.85c0.44,0.46,0.72,0.92,0.93,1.53c0.23,0.66,0.28,1.29,0.23,1.98
			c-0.06,0.97-0.32,1.74-0.85,2.56c-0.09,0.14-0.2,0.27-0.31,0.4c-0.53,0.61-1.1,1.07-1.82,1.43c-0.94,0.47-1.86,0.71-2.91,0.85
			c-0.67,0.09-1.35,0.15-2.02,0.16c-3.12,0.04-6.23,0-9.35,0V11.54C4.79,11.54,7.55,11.53,10.31,11.54 M6.62,19.82v-5
			c1.43,0,2.86-0.03,4.29,0.01c1.11,0.03,2.16,0.14,2.84,1.09c0.56,0.78,0.56,1.81,0.02,2.6c-0.37,0.54-0.87,0.83-1.51,0.97
			C10.4,19.9,8.53,19.81,6.62,19.82z M14.55,27.26c-0.31,0.99-1.24,1.5-2.22,1.64c-1.88,0.27-3.81,0.15-5.71,0.13V23.7
			c1.95,0,3.9-0.08,5.81,0.26c0.66,0.12,1.25,0.34,1.71,0.85c0.18,0.2,0.35,0.46,0.4,0.74c0,0.03,0,0.06,0.02,0.08
			c0,0,0.02-0.01,0.02,0c0.1,0.54,0.11,1.01,0,1.56c0,0.01-0.01-0.01-0.02,0C14.55,27.21,14.55,27.23,14.55,27.26z"/>
		<path class="st4" d="M70.44,9.47c-0.17-0.18-0.37-0.3-0.56-0.45c-0.26-0.11-0.36-0.07-0.59,0.08c-0.2,0.17-0.36,0.32-0.4,0.34
			c0-0.16-0.14-0.34-0.21-0.49c-0.02-0.13-0.02-0.13-0.03-0.34c0.25,0,0.25,0.17,0.45,0.29c0-0.1,0.01-0.2,0.01-0.3
			c0.18-0.16,0.34-0.34,0.56-0.43c0.21,0.08,0.4,0.27,0.57,0.43c0,0.1,0.01,0.2,0.01,0.3c0.15-0.14,0.23-0.29,0.45-0.29
			c-0.01,0.12-0.02,0.24-0.03,0.37c-0.09,0.17-0.19,0.31-0.21,0.5H70.44z"/>
		<path class="st4" d="M68.83,10.09c0.02,0.02,0.02,0.02,0.03-0.44c0.24-0.22,0.46-0.49,0.77-0.58c0.33,0.04,0.59,0.38,0.82,0.59
			c0.01,0.14,0.01,0.29,0.02,0.43c0.21-0.21,0.32-0.4,0.63-0.4c-0.02,0.38-0.05,0.6-0.28,0.92c-0.08-0.1-0.08-0.1-0.68-0.64
			c-0.41-0.29-0.58-0.25-0.95,0.03c-0.22,0.19-0.43,0.38-0.65,0.57c-0.01,0.05-0.02,0.11-0.03,0.16c-0.11-0.2-0.28-0.41-0.33-0.64
			c0-0.13,0-0.26,0-0.39C68.5,9.68,68.62,9.89,68.83,10.09"/>
		<path class="st4" d="M70.19,10.96c-0.31-0.18-0.35-0.23-0.69-0.2c-0.46,0.26-0.81,0.64-1.22,0.98v0.17h-0.03
			c-0.14-0.27-0.28-0.51-0.37-0.8c0-0.15-0.01-0.3-0.01-0.45c0.4,0,0.51,0.23,0.78,0.53c0,0.02,0,0.02,0.04,0.02v-0.59
			c0.28-0.26,0.56-0.53,0.88-0.73c0.16-0.03,0.27,0.03,0.41,0.11c0.39,0.32,0.39,0.32,0.7,0.62c0.01,0.19,0.02,0.39,0.02,0.58
			c0.17-0.19,0.32-0.37,0.53-0.52c0.08,0,0.09-0.02,0.26-0.02c0,0.14-0.01,0.28-0.01,0.42c-0.09,0.33-0.22,0.59-0.38,0.89h-0.02
			v-0.23C70.98,11.67,70.3,11.07,70.19,10.96"/>
		<path class="st4" d="M67.42,12.33v-0.48c0.13,0.01,0.22,0.03,0.35,0.05c0.18,0.16,0.18,0.16,0.64,0.61c0-0.24,0.01-0.47,0.01-0.71
			c0.31-0.27,0.61-0.53,0.92-0.79c0.35-0.21,0.49-0.09,0.81,0.11c0.16,0.14,0.64,0.58,0.77,0.68c0,0.24,0.01,0.47,0.01,0.7
			c0.36-0.37,0.49-0.62,0.98-0.66c-0.01,0.25-0.01,0.48-0.05,0.73c-0.1,0.26-0.1,0.26-0.25,0.57c-0.1,0.1-0.2,0.2-0.3,0.3
			c-0.01-0.18-0.02-0.35-0.02-0.53c-0.29-0.26-0.58-0.53-0.87-0.79c-0.43-0.33-0.66-0.5-1.18-0.22c-0.4,0.3-0.76,0.65-1.13,0.99
			c-0.01,0-0.02,0-0.04,0.01c0,0.19-0.01,0.37-0.01,0.56C67.75,13.11,67.46,12.81,67.42,12.33"/>
		<path class="st4" d="M68.2,13.8c0.01-0.28,0.02-0.56,0.02-0.84c0.39-0.36,0.78-0.78,1.25-1.05c0.42-0.08,0.59,0.09,0.93,0.37
			c0.25,0.23,0.49,0.45,0.74,0.68c0.01,0.28,0.02,0.56,0.02,0.84c0.2-0.21,0.4-0.42,0.6-0.64c0.2-0.13,0.32-0.14,0.56-0.15v0.44
			c-0.05,0.4-0.13,0.62-0.31,0.98c-0.07,0.06-0.14,0.11-0.21,0.16c-0.06,0.07-0.31,0.33-0.36,0.39c-0.01-0.2-0.02-0.4-0.02-0.61
			c-0.48-0.46-0.93-0.92-1.52-1.24c-0.06,0-0.08-0.02-0.35-0.02c-0.02,0.02-0.08,0.02-0.35,0.17c-0.44,0.34-0.84,0.71-1.24,1.09
			c-0.01,0.2-0.01,0.4-0.02,0.61c-0.1-0.09-0.27-0.23-0.33-0.35c-0.54-0.43-0.57-0.97-0.56-1.62c0.24,0.02,0.36,0.03,0.55,0.15
			C67.8,13.37,68,13.59,68.2,13.8"/>
		<path class="st4" d="M71.75,16.75c-0.01-0.26-0.01-0.52-0.02-0.78c-0.54-0.51-1.14-1.16-1.83-1.47c-0.06,0-0.08-0.02-0.33-0.02
			c-0.02,0.02-0.02,0.02-0.22,0.08c-0.64,0.38-1.16,0.92-1.71,1.41h-0.02v0.77h-0.02c-0.04-0.05-0.09-0.09-0.13-0.13
			c-0.3-0.53-0.64-0.97-0.68-1.58v-0.56c0.31,0.03,0.4,0.04,0.66,0.21c0.2,0.22,0.41,0.44,0.61,0.66c0.01-0.3,0.01-0.6,0.02-0.91
			c0.45-0.41,0.87-0.87,1.4-1.16c0.45-0.09,0.7,0.19,1.04,0.46c0.25,0.23,0.5,0.46,0.75,0.69c0,0.3,0.01,0.61,0.01,0.91
			c0.01-0.01,0.02-0.02,0.03-0.03c0.27-0.3,0.59-0.82,1.04-0.82c0.02-0.02,0.02-0.02,0.19-0.02c0,0.51-0.02,0.89-0.24,1.35
			C72.14,16.14,72.01,16.5,71.75,16.75"/>
		<path class="st4" d="M66.26,16.69c0-0.2,0.01-0.41,0.01-0.62c0.29,0.02,0.48,0.04,0.72,0.21c0.25,0.27,0.51,0.54,0.77,0.81
			c0.01,0.02,0.01,0.02,0.03-1.06c0.51-0.46,1-1,1.6-1.35c0.35-0.11,0.49-0.06,0.82,0.13c0.47,0.38,0.92,0.79,1.37,1.2
			c0.01,0.37,0.01,0.73,0.02,1.1c0.22-0.24,0.44-0.47,0.66-0.71c0.28-0.26,0.45-0.3,0.83-0.33c0,0.15,0.01,0.31,0.01,0.46
			c-0.03,0.36-0.08,0.65-0.21,0.99c-0.18,0.35-0.37,0.7-0.55,1.05c0,0.05,0,0.09,0,0.14c0.05,0,0.11,0.01,0.16,0.01v1.48h-5.6v-1.48
			c0.05,0,0.1-0.01,0.15-0.01c0-0.05,0-0.09-0.01-0.14c-0.25-0.45-0.66-1.01-0.77-1.55C66.27,16.91,66.26,16.8,66.26,16.69"/>
	</g>
	<g class="st1">
		<path class="st3" d="M137.32,37.25v1.28h0.25c0.14,0,0.3-0.01,0.44-0.04c0.1-0.03,0.19-0.07,0.26-0.15
			c0.06-0.06,0.11-0.13,0.14-0.21c0.03-0.09,0.04-0.18,0.04-0.27c0-0.1-0.02-0.2-0.06-0.29c-0.04-0.08-0.09-0.14-0.17-0.19
			c-0.07-0.05-0.15-0.08-0.24-0.1c-0.11-0.02-0.24-0.03-0.35-0.03H137.32z M137.32,39.07v1.33h-0.61V36.7h0.95
			c0.18,0,0.37,0.01,0.55,0.05c0.15,0.04,0.29,0.09,0.41,0.18c0.14,0.1,0.25,0.22,0.33,0.37c0.09,0.17,0.12,0.35,0.12,0.54
			c0,0.16-0.03,0.31-0.09,0.46c-0.06,0.14-0.13,0.27-0.24,0.38c-0.13,0.13-0.28,0.23-0.45,0.29c-0.2,0.08-0.43,0.1-0.65,0.1H137.32z
			"/>
		<polygon class="st3" points="140,39.84 141.58,39.84 141.58,40.4 139.39,40.4 139.39,36.7 140,36.7 		"/>
		<path class="st3" d="M143.22,40.4c-0.23,0-0.45-0.03-0.66-0.12c-0.2-0.08-0.38-0.2-0.53-0.35c-0.16-0.17-0.27-0.37-0.34-0.58
			c-0.09-0.25-0.12-0.52-0.12-0.79c0-0.26,0.03-0.53,0.12-0.77c0.07-0.21,0.19-0.41,0.34-0.58c0.15-0.16,0.32-0.28,0.53-0.37
			c0.21-0.09,0.44-0.13,0.68-0.13c0.11,0,0.23,0.01,0.34,0.03c0.1,0.02,0.2,0.04,0.3,0.07c0.08,0.02,0.16,0.06,0.24,0.09
			c0.08,0.04,0.16,0.08,0.24,0.12l0.03,0.02v0.65h-0.13l-0.02-0.02c-0.05-0.04-0.1-0.09-0.16-0.13c-0.07-0.06-0.15-0.1-0.23-0.14
			c-0.09-0.05-0.18-0.08-0.28-0.11c-0.11-0.03-0.23-0.04-0.35-0.04c-0.14,0-0.27,0.03-0.4,0.08c-0.13,0.06-0.24,0.14-0.33,0.25
			c-0.11,0.12-0.17,0.27-0.22,0.42c-0.06,0.19-0.08,0.38-0.08,0.58c0,0.19,0.02,0.4,0.08,0.59c0.05,0.15,0.12,0.29,0.23,0.41
			c0.09,0.1,0.2,0.19,0.32,0.24c0.12,0.06,0.26,0.08,0.39,0.08c0.12,0,0.24-0.01,0.36-0.05c0.1-0.03,0.2-0.07,0.29-0.12
			c0.07-0.04,0.15-0.09,0.22-0.14c0.05-0.04,0.1-0.08,0.14-0.12l0.02-0.02h0.13v0.65l-0.04,0.02c-0.07,0.03-0.15,0.07-0.22,0.1
			c-0.08,0.04-0.17,0.07-0.26,0.1c-0.1,0.03-0.2,0.06-0.29,0.08C143.46,40.39,143.34,40.4,143.22,40.4"/>
		<rect x="144.79" y="39.58" class="st3" width="0.7" height="0.81"/>
		<path class="st3" d="M72.92,36.78h0.64l0.94,2.82l0.94-2.82h0.62l-1.26,3.69h-0.61l-1.24-3.63v0.49h-1.74v0.84h1.63v0.56h-1.63
			v1.19h1.74v0.56H70.6v-3.69H72.92z M3.97,38.4c0.16,0.06,0.29,0.16,0.4,0.3c0.13,0.18,0.18,0.39,0.18,0.61
			c0,0.17-0.03,0.34-0.11,0.5c-0.07,0.14-0.16,0.26-0.29,0.36c-0.14,0.11-0.29,0.19-0.45,0.24c-0.19,0.05-0.41,0.07-0.61,0.07H2.02
			v-3.69h1.01c0.11,0,0.22,0,0.33,0.01c0.08,0,0.16,0.01,0.24,0.02c0.14,0.02,0.26,0.06,0.39,0.13c0.13,0.07,0.24,0.17,0.31,0.3
			c0.07,0.13,0.09,0.28,0.09,0.42c0,0.18-0.04,0.34-0.14,0.49C4.18,38.24,4.08,38.33,3.97,38.4z M6.68,39.48H5.42L5.1,40.47H4.48
			l1.24-3.69H6.4l1.24,3.69H7L6.68,39.48z M8.38,37.61v2.86H7.81v-3.69h0.77l1.31,2.61v-2.61h0.57v3.69H9.84L8.38,37.61z
			 M11.8,38.85l-0.14,0.15v1.46h-0.61v-3.69h0.61v1.54l1.36-1.54h0.75l-1.53,1.66l1.6,2.03h-0.78L11.8,38.85z M16.05,37.33v0.87
			h1.57v0.55h-1.57v1.71h-0.61v-3.69h2.24v0.55H16.05z M20.6,37.21c0.15,0.18,0.26,0.38,0.33,0.6c0.08,0.26,0.11,0.54,0.11,0.81
			c0,0.27-0.03,0.54-0.11,0.8c-0.07,0.22-0.18,0.43-0.33,0.61c-0.15,0.17-0.32,0.3-0.53,0.38c-0.21,0.09-0.43,0.12-0.66,0.12
			c-0.23,0-0.46-0.04-0.67-0.13c-0.2-0.09-0.38-0.21-0.52-0.38c-0.15-0.18-0.26-0.39-0.33-0.61c-0.08-0.26-0.11-0.53-0.11-0.8
			c0-0.27,0.03-0.55,0.11-0.81c0.07-0.22,0.18-0.43,0.33-0.6c0.14-0.17,0.32-0.29,0.52-0.38c0.21-0.09,0.44-0.13,0.67-0.13
			c0.23,0,0.46,0.04,0.68,0.13C20.29,36.92,20.46,37.05,20.6,37.21z M22.47,39.06h-0.44v1.42h-0.6v-3.69h0.98
			c0.17,0,0.35,0.01,0.52,0.03c0.15,0.02,0.29,0.08,0.42,0.17c0.13,0.09,0.24,0.19,0.31,0.33c0.09,0.15,0.12,0.33,0.12,0.5
			c0,0.25-0.06,0.49-0.21,0.69c-0.13,0.17-0.29,0.29-0.48,0.38l1.29,1.59h-0.78L22.47,39.06z M26.28,39.98v-2.7h-0.45v-0.5h1.51v0.5
			h-0.45v2.7h0.45v0.5h-1.51v-0.5H26.28z M28.35,37.61v2.86h-0.57v-3.69h0.77l1.32,2.61v-2.61h0.57v3.69h-0.63L28.35,37.61z
			 M32.2,39.6l0.94-2.82h0.62l-1.26,3.69h-0.61l-1.26-3.69h0.64L32.2,39.6z M34.54,37.33v0.84h1.62v0.56h-1.62v1.19h1.74v0.56h-2.35
			v-3.69h2.35v0.55H34.54z M37.72,40.54c-0.22,0-0.46-0.02-0.67-0.08c-0.18-0.05-0.35-0.12-0.52-0.2l-0.04-0.02v-0.7h0.13l0.02,0.02
			c0.15,0.14,0.32,0.25,0.51,0.33c0.17,0.07,0.35,0.12,0.54,0.12c0.18,0,0.4-0.03,0.55-0.15c0.12-0.1,0.17-0.22,0.17-0.38
			c0-0.11-0.02-0.22-0.09-0.31c-0.07-0.09-0.19-0.14-0.3-0.17c-0.1-0.03-0.2-0.06-0.3-0.08c-0.11-0.03-0.23-0.06-0.34-0.08
			c-0.12-0.03-0.23-0.07-0.34-0.13c-0.1-0.05-0.19-0.12-0.27-0.21c-0.08-0.09-0.14-0.19-0.18-0.3c-0.05-0.13-0.06-0.26-0.06-0.39
			c0-0.31,0.12-0.57,0.36-0.78c0.25-0.22,0.56-0.31,0.9-0.31c0.19,0,0.39,0.02,0.58,0.06c0.17,0.04,0.34,0.1,0.5,0.18l0.04,0.02
			v0.68h-0.13l-0.02-0.02c-0.12-0.11-0.27-0.19-0.41-0.26c-0.17-0.07-0.34-0.11-0.53-0.11c-0.17,0-0.35,0.03-0.49,0.14
			c-0.12,0.09-0.18,0.2-0.18,0.35c0,0.11,0.02,0.23,0.1,0.32c0.08,0.09,0.2,0.14,0.31,0.17c0.12,0.03,0.24,0.06,0.36,0.09
			c0.12,0.03,0.24,0.06,0.36,0.1c0.22,0.07,0.43,0.18,0.57,0.36c0.13,0.18,0.18,0.38,0.18,0.6c0,0.15-0.03,0.3-0.09,0.44
			c-0.06,0.14-0.14,0.26-0.25,0.37c-0.12,0.11-0.26,0.19-0.41,0.25C38.1,40.52,37.9,40.54,37.72,40.54z M40.2,37.33h-1.19v-0.55H42
			v0.55h-1.19v3.14h-0.6V37.33z M44.78,37.65l-0.81,1.84h-0.37l-0.8-1.84v2.82h-0.57v-3.69h0.75l0.84,1.88l0.81-1.88h0.77v3.69
			h-0.61V37.65z M46.57,37.33v0.84h1.62v0.56h-1.62v1.19h1.74v0.56h-2.35v-3.69h2.35v0.55H46.57z M49.27,37.61v2.86H48.7v-3.69h0.77
			l1.32,2.61v-2.61h0.57v3.69h-0.63L49.27,37.61z M52.78,37.33h-1.19v-0.55h2.98v0.55h-1.19v3.14h-0.61V37.33z M58.1,39.48h-1.26
			l-0.32,0.99H55.9l1.24-3.69h0.68l1.24,3.69h-0.64L58.1,39.48z M59.8,37.61v2.86h-0.57v-3.69H60l1.32,2.61v-2.61h0.57v3.69h-0.63
			L59.8,37.61z M65.4,38.63c0,0.32-0.06,0.63-0.2,0.91c-0.13,0.26-0.31,0.48-0.55,0.64c-0.17,0.11-0.36,0.19-0.57,0.24
			c-0.23,0.05-0.48,0.06-0.72,0.06h-0.88v-3.69h0.87c0.26,0,0.55,0.01,0.8,0.08c0.18,0.05,0.35,0.12,0.5,0.22
			c0.24,0.16,0.42,0.37,0.55,0.63C65.34,37.99,65.4,38.31,65.4,38.63z M70.22,38.63c0,0.32-0.06,0.63-0.2,0.91
			c-0.13,0.26-0.31,0.48-0.55,0.64c-0.17,0.11-0.36,0.19-0.57,0.24c-0.23,0.05-0.48,0.06-0.72,0.06H67.3v-3.69h0.87
			c0.26,0,0.55,0.01,0.8,0.08c0.18,0.05,0.35,0.12,0.5,0.22c0.24,0.16,0.42,0.37,0.55,0.63C70.17,37.99,70.22,38.31,70.22,38.63z
			 M76.84,37.33v0.84h1.62v0.56h-1.62v1.19h1.74v0.56h-2.35v-3.69h2.35v0.55H76.84z M79.57,39.92h1.58v0.56h-2.19v-3.69h0.6V39.92z
			 M83.97,37.21c0.15,0.18,0.26,0.38,0.33,0.6c0.08,0.26,0.11,0.54,0.11,0.81c0,0.27-0.03,0.54-0.11,0.8
			c-0.07,0.22-0.17,0.43-0.33,0.61c-0.15,0.17-0.33,0.3-0.53,0.38c-0.21,0.09-0.44,0.12-0.66,0.12c-0.23,0-0.46-0.04-0.67-0.13
			c-0.2-0.09-0.38-0.21-0.52-0.38c-0.15-0.18-0.26-0.39-0.33-0.61c-0.08-0.26-0.11-0.53-0.11-0.8c0-0.27,0.03-0.55,0.11-0.81
			c0.07-0.22,0.18-0.43,0.33-0.6c0.14-0.17,0.32-0.29,0.52-0.38c0.21-0.09,0.44-0.13,0.67-0.13c0.23,0,0.46,0.04,0.68,0.13
			C83.65,36.92,83.82,37.05,83.97,37.21z M85.39,39.14v1.33h-0.61v-3.69h0.96c0.18,0,0.37,0.01,0.55,0.05
			c0.15,0.04,0.29,0.09,0.41,0.18c0.14,0.1,0.25,0.22,0.33,0.37c0.09,0.16,0.12,0.35,0.12,0.54c0,0.16-0.03,0.32-0.09,0.46
			c-0.06,0.14-0.13,0.27-0.24,0.38c-0.13,0.13-0.28,0.23-0.45,0.29c-0.2,0.08-0.43,0.1-0.65,0.1H85.39z M90.03,37.65l-0.81,1.84
			h-0.37l-0.8-1.84v2.82h-0.57v-3.69h0.75l0.84,1.88l0.81-1.88h0.77v3.69h-0.61V37.65z M91.83,37.33v0.84h1.63v0.56h-1.63v1.19h1.74
			v0.56h-2.35v-3.69h2.35v0.55H91.83z M94.52,37.61v2.86h-0.57v-3.69h0.77l1.32,2.61v-2.61h0.57v3.69h-0.63L94.52,37.61z
			 M98.03,37.33h-1.19v-0.55h2.98v0.55h-1.19v3.14h-0.61V37.33z M104.19,37.21c0.15,0.18,0.26,0.38,0.33,0.6
			c0.08,0.26,0.12,0.54,0.12,0.81c0,0.27-0.03,0.54-0.11,0.8c-0.07,0.22-0.17,0.43-0.33,0.61c-0.15,0.17-0.33,0.3-0.53,0.38
			c-0.21,0.09-0.43,0.12-0.66,0.12c-0.23,0-0.46-0.04-0.67-0.13c-0.2-0.09-0.38-0.21-0.52-0.38c-0.15-0.18-0.26-0.39-0.33-0.61
			c-0.08-0.26-0.11-0.53-0.11-0.8c0-0.27,0.03-0.55,0.11-0.81c0.07-0.22,0.18-0.43,0.33-0.6c0.14-0.17,0.32-0.29,0.52-0.38
			c0.22-0.09,0.44-0.13,0.67-0.13c0.23,0,0.46,0.04,0.68,0.13C103.87,36.92,104.04,37.05,104.19,37.21z M105.61,37.33v0.87h1.57
			v0.55h-1.57v1.71h-0.61v-3.69h2.24v0.55H105.61z M2.63,37.32v0.9H3.1c0.1,0,0.22,0,0.31-0.02c0.07-0.02,0.13-0.05,0.19-0.09
			c0.06-0.04,0.1-0.09,0.13-0.15c0.03-0.08,0.04-0.17,0.04-0.25c0-0.07-0.01-0.13-0.04-0.19c-0.02-0.05-0.06-0.09-0.11-0.12
			c-0.07-0.04-0.15-0.06-0.23-0.07c-0.12-0.01-0.26-0.01-0.38-0.01H2.63z M2.63,38.75v1.18h0.32c0.16,0,0.32,0,0.48-0.03
			c0.1-0.02,0.2-0.05,0.29-0.11c0.07-0.05,0.13-0.11,0.17-0.19c0.04-0.08,0.05-0.19,0.05-0.28c0-0.1-0.01-0.21-0.05-0.3
			c-0.04-0.09-0.12-0.15-0.2-0.19c-0.03-0.02-0.07-0.03-0.1-0.04c-0.04-0.01-0.08-0.02-0.12-0.02c-0.05-0.01-0.1-0.01-0.15-0.01
			c-0.07,0-0.14,0-0.21,0H2.63z M6.5,38.94l-0.45-1.39L5.6,38.94H6.5z M20.42,38.63c0-0.2-0.02-0.41-0.07-0.61
			c-0.04-0.15-0.11-0.3-0.2-0.43c-0.08-0.11-0.19-0.2-0.31-0.26c-0.13-0.06-0.27-0.09-0.42-0.09c-0.14,0-0.29,0.02-0.42,0.08
			c-0.13,0.06-0.23,0.15-0.32,0.26c-0.1,0.13-0.16,0.28-0.2,0.43c-0.05,0.2-0.07,0.4-0.07,0.6c0,0.35,0.05,0.75,0.28,1.03
			c0.19,0.24,0.43,0.35,0.73,0.35c0.3,0,0.54-0.11,0.73-0.35C20.36,39.37,20.42,38.98,20.42,38.63z M22.03,37.32v1.2h0.35
			c0.12,0,0.24-0.01,0.35-0.03c0.09-0.02,0.17-0.06,0.24-0.13c0.06-0.06,0.11-0.13,0.13-0.21c0.03-0.1,0.05-0.2,0.05-0.3
			c0-0.09-0.01-0.17-0.05-0.25c-0.03-0.07-0.08-0.12-0.15-0.17c-0.06-0.04-0.13-0.07-0.21-0.08c-0.1-0.02-0.21-0.03-0.32-0.03H22.03
			z M57.92,38.94l-0.45-1.39l-0.45,1.39H57.92z M63.08,37.32v2.6h0.29c0.18,0,0.36-0.01,0.53-0.05c0.15-0.03,0.28-0.09,0.4-0.18
			c0.15-0.11,0.27-0.24,0.34-0.41c0.09-0.2,0.12-0.44,0.12-0.67c0-0.23-0.03-0.46-0.13-0.67c-0.08-0.18-0.21-0.32-0.38-0.42
			c-0.12-0.07-0.24-0.13-0.38-0.16c-0.17-0.04-0.35-0.05-0.51-0.05H63.08z M67.91,37.32v2.6h0.29c0.18,0,0.36-0.01,0.53-0.05
			c0.15-0.03,0.28-0.09,0.4-0.18c0.15-0.11,0.27-0.24,0.34-0.41c0.09-0.2,0.12-0.44,0.12-0.67c0-0.23-0.03-0.46-0.13-0.67
			c-0.08-0.18-0.21-0.32-0.37-0.42c-0.12-0.07-0.25-0.13-0.38-0.16c-0.17-0.04-0.35-0.05-0.51-0.05H67.91z M83.78,38.63
			c0-0.2-0.02-0.41-0.07-0.61c-0.04-0.15-0.11-0.3-0.2-0.43c-0.08-0.11-0.19-0.2-0.31-0.26c-0.13-0.06-0.27-0.09-0.42-0.09
			c-0.14,0-0.29,0.02-0.42,0.08c-0.12,0.06-0.23,0.15-0.31,0.26c-0.1,0.13-0.16,0.28-0.2,0.43c-0.05,0.2-0.07,0.4-0.07,0.6
			c0,0.35,0.06,0.75,0.28,1.03c0.19,0.24,0.43,0.35,0.73,0.35c0.3,0,0.55-0.11,0.73-0.35C83.73,39.37,83.78,38.98,83.78,38.63z
			 M85.39,37.32v1.28h0.25c0.14,0,0.3-0.01,0.44-0.04c0.1-0.03,0.19-0.07,0.26-0.15c0.06-0.06,0.11-0.13,0.13-0.21
			c0.03-0.09,0.04-0.18,0.04-0.27c0-0.1-0.01-0.2-0.05-0.29c-0.04-0.08-0.09-0.14-0.17-0.19c-0.07-0.05-0.15-0.08-0.24-0.09
			c-0.11-0.02-0.24-0.03-0.35-0.03H85.39z M104,38.63c0-0.2-0.02-0.41-0.07-0.61c-0.04-0.15-0.11-0.3-0.2-0.43
			c-0.08-0.11-0.19-0.2-0.31-0.26c-0.13-0.06-0.27-0.09-0.42-0.09c-0.14,0-0.29,0.02-0.42,0.08c-0.13,0.06-0.23,0.15-0.32,0.26
			c-0.1,0.13-0.16,0.28-0.2,0.43c-0.05,0.2-0.07,0.4-0.07,0.6c0,0.35,0.06,0.75,0.28,1.03c0.19,0.24,0.43,0.35,0.73,0.35
			c0.3,0,0.54-0.11,0.73-0.35C103.95,39.37,104,38.98,104,38.63z"/>
		<polygon class="st3" points="118.88,37.65 118.07,39.49 117.7,39.49 116.9,37.65 116.9,40.47 116.32,40.47 116.32,36.78 
			117.08,36.78 117.92,38.66 118.72,36.78 119.49,36.78 119.49,40.47 118.88,40.47 		"/>
		<path class="st3" d="M120.68,38.75v1.18h0.31c0.16,0,0.32,0,0.48-0.03c0.1-0.02,0.2-0.05,0.28-0.11c0.07-0.05,0.14-0.11,0.17-0.19
			c0.04-0.08,0.05-0.19,0.05-0.28c0-0.1-0.01-0.21-0.05-0.3c-0.04-0.09-0.12-0.15-0.2-0.19c-0.03-0.02-0.07-0.03-0.1-0.04
			c-0.04-0.01-0.08-0.02-0.12-0.02c-0.05-0.01-0.1-0.01-0.15-0.01c-0.07,0-0.14,0-0.21,0H120.68z M120.68,37.32v0.9h0.47
			c0.1,0,0.22,0,0.31-0.02c0.07-0.02,0.13-0.05,0.2-0.09c0.06-0.04,0.1-0.09,0.12-0.15c0.03-0.08,0.04-0.17,0.04-0.25
			c0-0.07-0.01-0.13-0.04-0.19c-0.02-0.05-0.06-0.09-0.11-0.12c-0.07-0.04-0.15-0.06-0.23-0.07c-0.12-0.01-0.26-0.01-0.38-0.01
			H120.68z M122.02,38.4c0.16,0.06,0.29,0.16,0.4,0.3c0.13,0.18,0.18,0.39,0.18,0.61c0,0.17-0.03,0.34-0.11,0.5
			c-0.07,0.14-0.16,0.26-0.29,0.36c-0.13,0.11-0.28,0.19-0.45,0.24c-0.19,0.05-0.41,0.07-0.61,0.07h-1.08v-3.69h1.01
			c0.11,0,0.22,0,0.33,0.01c0.08,0,0.16,0.01,0.24,0.02c0.14,0.02,0.26,0.06,0.39,0.13c0.13,0.07,0.24,0.17,0.31,0.3
			c0.07,0.13,0.1,0.28,0.1,0.42c0,0.18-0.05,0.34-0.14,0.49C122.23,38.24,122.13,38.33,122.02,38.4z"/>
		<path class="st3" d="M125.41,38.63c0-0.2-0.02-0.41-0.07-0.61c-0.04-0.15-0.11-0.3-0.2-0.43c-0.09-0.11-0.19-0.2-0.32-0.26
			c-0.13-0.06-0.27-0.09-0.42-0.09c-0.14,0-0.29,0.02-0.42,0.08c-0.13,0.06-0.23,0.15-0.31,0.26c-0.1,0.13-0.16,0.28-0.2,0.43
			c-0.05,0.2-0.07,0.4-0.07,0.6c0,0.35,0.06,0.75,0.28,1.03c0.19,0.24,0.43,0.35,0.73,0.35c0.3,0,0.55-0.11,0.73-0.35
			C125.35,39.37,125.41,38.98,125.41,38.63 M125.59,37.21c0.15,0.18,0.26,0.38,0.33,0.6c0.08,0.26,0.11,0.54,0.11,0.81
			c0,0.27-0.03,0.54-0.11,0.8c-0.07,0.22-0.18,0.43-0.33,0.61c-0.15,0.17-0.32,0.3-0.53,0.38c-0.21,0.09-0.44,0.12-0.66,0.12
			c-0.23,0-0.46-0.04-0.67-0.13c-0.2-0.09-0.38-0.21-0.52-0.38c-0.15-0.18-0.26-0.39-0.33-0.61c-0.08-0.26-0.11-0.53-0.11-0.8
			c0-0.27,0.03-0.55,0.11-0.81c0.07-0.22,0.18-0.43,0.33-0.6c0.14-0.17,0.32-0.29,0.52-0.38c0.21-0.09,0.44-0.13,0.67-0.13
			c0.23,0,0.46,0.04,0.68,0.13C125.27,36.92,125.45,37.05,125.59,37.21z"/>
		<polygon class="st3" points="129.87,39.98 129.87,37.27 129.42,37.27 129.42,36.78 130.93,36.78 130.93,37.27 130.48,37.27 
			130.48,39.98 130.93,39.98 130.93,40.47 129.42,40.47 129.42,39.98 		"/>
		<path class="st3" d="M127.07,37.32v2.6h0.29c0.18,0,0.36-0.01,0.53-0.05c0.15-0.03,0.28-0.09,0.4-0.18
			c0.15-0.11,0.27-0.24,0.34-0.41c0.09-0.2,0.12-0.44,0.12-0.67c0-0.23-0.03-0.46-0.13-0.67c-0.08-0.18-0.21-0.32-0.38-0.42
			c-0.12-0.07-0.24-0.13-0.38-0.16c-0.17-0.04-0.35-0.05-0.51-0.05H127.07z M129.38,38.63c0,0.32-0.06,0.63-0.2,0.91
			c-0.13,0.26-0.31,0.48-0.55,0.64c-0.17,0.11-0.36,0.19-0.57,0.24c-0.23,0.05-0.48,0.06-0.72,0.06h-0.88v-3.69h0.87
			c0.26,0,0.55,0.01,0.8,0.08c0.18,0.05,0.35,0.12,0.5,0.22c0.24,0.16,0.42,0.37,0.55,0.63C129.33,37.99,129.38,38.31,129.38,38.63z
			"/>
		<path class="st3" d="M133.39,38.94l-0.45-1.39l-0.45,1.39H133.39z M133.57,39.48h-1.26l-0.32,0.99h-0.62l1.24-3.69h0.68l1.24,3.69
			h-0.64L133.57,39.48z"/>
		<path class="st3" d="M114.75,38.93l-0.45-1.39l-0.45,1.39H114.75z M112.94,39.85l1.03-3.08h0.68l1.24,3.69h-0.64l-0.32-0.99h-1.26
			l-0.32,0.99h-0.62L112.94,39.85z"/>
		<path class="st3" d="M112.34,40.3l-0.02,0.01c-0.07,0.04-0.15,0.07-0.22,0.11c-0.08,0.04-0.17,0.07-0.26,0.1
			c-0.1,0.03-0.19,0.06-0.29,0.08c-0.11,0.02-0.24,0.03-0.35,0.03c-0.23,0-0.45-0.04-0.67-0.12c-0.2-0.08-0.38-0.2-0.53-0.37
			c-0.16-0.17-0.27-0.38-0.34-0.6c-0.09-0.26-0.12-0.54-0.12-0.82c0-0.27,0.03-0.55,0.12-0.8c0.07-0.22,0.19-0.43,0.34-0.6
			c0.15-0.17,0.32-0.29,0.53-0.38c0.21-0.09,0.44-0.13,0.67-0.13c0.12,0,0.23,0.01,0.34,0.03c0.1,0.02,0.2,0.04,0.3,0.07
			c0.08,0.02,0.16,0.06,0.24,0.09c0.08,0.04,0.16,0.08,0.24,0.12l0.04,0.02v0.68h-0.13l-0.02-0.02c-0.05-0.05-0.1-0.09-0.16-0.13
			c-0.07-0.06-0.15-0.11-0.23-0.15c-0.09-0.05-0.19-0.09-0.28-0.11c-0.11-0.03-0.23-0.04-0.35-0.04c-0.14,0-0.27,0.03-0.4,0.09
			c-0.13,0.06-0.24,0.15-0.33,0.26c-0.1,0.12-0.17,0.28-0.22,0.43c-0.06,0.19-0.08,0.4-0.08,0.6c0,0.2,0.02,0.41,0.08,0.61
			c0.05,0.15,0.12,0.3,0.23,0.42c0.09,0.11,0.2,0.19,0.32,0.25c0.13,0.05,0.26,0.08,0.39,0.08c0.12,0,0.24-0.01,0.36-0.05
			c0.1-0.03,0.2-0.07,0.29-0.12c0.08-0.04,0.15-0.09,0.22-0.15c0.05-0.04,0.1-0.08,0.15-0.13l0.02-0.02h0.13v0.64L112.34,40.3z"/>
	</g>
</g>
<g id="White">
	<g>
		<path class="st2" d="M61.38,14.71l7.63-7.63c0.38-0.38,0.99-0.38,1.37,0l7.63,7.63c0.38,0.38,0.38,0.99,0,1.37l-7.63,7.63
			c-0.38,0.38-0.99,0.38-1.37,0l-7.63-7.63C61.01,15.7,61.01,15.09,61.38,14.71"/>
		<path class="st4" d="M111.74,30.37c-0.14,0.1-0.28,0.21-0.42,0.31c-0.33,0.25-0.69,0.48-1.07,0.66c-0.44,0.22-0.91,0.41-1.38,0.54
			c-0.58,0.16-1.28,0.19-1.88,0.19c-0.66,0-1.3-0.12-1.91-0.36c-0.6-0.24-1.14-0.58-1.59-1.02c-0.46-0.45-0.8-1-1.05-1.58
			c-0.27-0.63-0.39-1.29-0.39-1.97c0-0.96,0.19-1.9,0.71-2.73c0.52-0.83,1.34-1.4,2.26-1.8c0.99-0.43,2.07-0.67,3.14-0.8
			c1.19-0.14,2.38-0.24,3.58-0.31v-0.24c0-0.43-0.05-0.91-0.25-1.3c-0.15-0.3-0.37-0.55-0.67-0.73c-0.34-0.21-0.72-0.32-1.11-0.37
			c-0.48-0.07-0.96-0.1-1.44-0.1c-0.68,0-1.39,0.11-2.06,0.25c-0.82,0.18-1.62,0.44-2.39,0.75l-0.05,0.02h-0.47v-2.96l0.19-0.05
			c0.68-0.18,1.4-0.31,2.09-0.44c0.9-0.16,1.8-0.24,2.71-0.24c0.91,0,1.86,0.05,2.75,0.24c0.75,0.16,1.45,0.46,2.07,0.9
			c0.61,0.44,1.06,1,1.35,1.67c0.33,0.76,0.44,1.62,0.44,2.44v10.73h-3.14V30.37z M111.74,27.68v-3.66
			c-0.68,0.06-1.36,0.13-2.04,0.19c-0.73,0.07-1.52,0.17-2.23,0.38c-0.6,0.17-1.15,0.45-1.6,0.86c-0.45,0.41-0.6,0.97-0.6,1.55
			c0,0.63,0.15,1.27,0.66,1.71c0.53,0.46,1.3,0.58,2,0.58c0.74,0,1.44-0.14,2.1-0.47C110.64,28.5,111.22,28.12,111.74,27.68z"/>
		<path class="st4" d="M96.38,20.55c0.99,0.34,1.86,0.88,2.5,1.72c0.77,0.99,1.06,2.16,1.06,3.39c0,0.96-0.17,1.91-0.6,2.77
			c-0.39,0.78-0.94,1.44-1.64,1.98c-0.78,0.59-1.64,1.04-2.58,1.32c-1.11,0.3-2.36,0.37-3.5,0.37h-6.18V11.45h5.73
			c0.65,0,1.3,0.01,1.94,0.04c0.46,0.02,0.93,0.05,1.39,0.1c0.78,0.1,1.52,0.33,2.21,0.69c0.73,0.38,1.35,0.91,1.74,1.63
			c0.39,0.72,0.54,1.53,0.54,2.34c0,0.97-0.25,1.88-0.81,2.69C97.71,19.61,97.1,20.14,96.38,20.55 M88.72,14.27v5.35h2.84
			c0.58,0,1.27,0,1.84-0.11c0.42-0.1,0.81-0.28,1.17-0.5c0.36-0.22,0.62-0.52,0.78-0.9c0.19-0.45,0.24-0.98,0.24-1.46
			c0-0.39-0.06-0.79-0.23-1.15c-0.15-0.31-0.38-0.55-0.69-0.72c-0.42-0.23-0.89-0.36-1.38-0.41c-0.73-0.07-1.49-0.08-2.22-0.08
			H88.72z M88.72,22.38v6.9h1.96c0.91,0,1.89-0.02,2.79-0.16c0.62-0.1,1.2-0.3,1.72-0.64c0.43-0.29,0.81-0.64,1.05-1.1
			c0.25-0.48,0.32-1.08,0.32-1.62c0-0.58-0.07-1.22-0.31-1.75c-0.24-0.52-0.71-0.88-1.22-1.13l-0.01,0
			c-0.2-0.11-0.41-0.19-0.62-0.25c-0.23-0.07-0.47-0.11-0.7-0.15c-0.3-0.04-0.6-0.06-0.9-0.07c-0.41-0.02-0.82-0.02-1.23-0.02H88.72
			z"/>
		<polygon class="st4" points="135.67,24.94 134.91,25.64 134.91,32.1 131.74,32.1 131.74,11.45 134.91,11.45 134.91,22.47 
			140.72,16.49 144.75,16.49 138.05,23.07 145.53,32.1 141.39,32.1 		"/>
		<path class="st4" d="M120.07,20.69V32.1h-3.14V16.49h3.14v1.37c0.59-0.47,1.23-0.9,1.91-1.22c0.79-0.38,1.63-0.57,2.51-0.57
			c1.48,0,2.8,0.44,3.78,1.56c1.06,1.21,1.35,2.87,1.35,4.42V32.1h-3.14v-8.86c0-0.64-0.03-1.28-0.1-1.91
			c-0.05-0.44-0.15-0.95-0.36-1.34c-0.18-0.32-0.44-0.57-0.77-0.74c-0.42-0.2-0.97-0.25-1.43-0.25c-0.66,0-1.29,0.19-1.88,0.48
			C121.27,19.81,120.65,20.22,120.07,20.69"/>
		<rect x="21.53" y="11.45" class="st4" width="4.6" height="20.64"/>
		<path class="st2" d="M59.07,32.09c-0.62-0.01-1.26-0.01-1.88-0.06c-1.25-0.11-2.42-0.22-3.62-0.61c-0.96-0.31-1.78-0.77-2.58-1.4
			c-0.24-0.19-0.45-0.41-0.66-0.62c-0.11-0.11-0.22-0.22-0.31-0.34c-1.04-1.32-1.66-2.65-1.97-4.32c-0.5-2.68-0.41-5.41,0.61-7.97
			c0.09-0.22,0.19-0.44,0.3-0.65c0.74-1.37,1.64-2.35,2.93-3.17c0.27-0.17,0.56-0.31,0.84-0.46c0.01-0.01,0.04-0.01,0.06-0.02
			c0.26-0.1,0.53-0.21,0.79-0.3c1.21-0.4,2.43-0.54,3.7-0.65c0.08,0,0.16,0,0.24,0c0.22-0.01,0.43-0.04,0.65-0.04
			c1.61-0.01,3.22,0,4.83,0c-0.85,0.88-1.96,2.13-2.95,3.2c-1.59,0.03-3.31-0.11-4.78,0.62c-0.55,0.27-0.55,0.29-0.76,0.47
			c-0.35,0.3-0.37,0.29-0.65,0.63c-0.48,0.58-0.8,1.18-1.07,1.9c-0.17,0.46-0.18,0.46-0.3,1.06c-0.42,1.94-0.34,3.92,0.28,5.81
			c0.12,0.35,0.28,0.68,0.45,1.02c0.14,0.26,0.38,0.58,0.41,0.6c0.01,0.01,0.01,0.01,0.02,0.02c0.73,1,1.7,1.49,2.84,1.79
			c0.54,0.14,1.35,0.32,1.9,0.32c2.07,0.02,4.14,0,6.22,0v3.21C62.76,32.09,60.91,32.1,59.07,32.09"/>
		<path class="st4" d="M39.69,26.69c0.01,0,0.02-0.01,0.02-0.02c0.31-0.47,0.58-0.93,0.77-1.46c0.82-2.32,0.78-4.97-0.13-7.25
			c-0.09-0.22-0.19-0.43-0.3-0.63c-0.47-0.8-0.94-1.34-1.7-1.84c-0.19-0.12-0.4-0.23-0.61-0.31c-1.52-0.59-3.17-0.5-4.77-0.51v4.98
			v7.04v2.22c1.83-0.02,3.64,0,5.29-0.89C38.86,27.67,39.26,27.25,39.69,26.69 M28.43,32.1c2.23,0,4.45,0.02,6.68,0
			c0.31,0,0.62-0.01,0.93-0.04c1.27-0.09,2.5-0.25,3.71-0.65c0.27-0.09,0.54-0.19,0.8-0.31c0.86-0.39,1.57-0.91,2.28-1.53
			c0.01-0.01,0.01-0.01,0.02-0.02c0.45-0.47,0.86-0.96,1.2-1.52c0.17-0.27,0.33-0.56,0.46-0.85c0.26-0.54,0.46-1.08,0.61-1.65
			c0.7-2.63,0.68-5.45-0.15-8.05c-0.34-1.06-0.84-1.94-1.52-2.81c-0.18-0.23-0.4-0.44-0.6-0.65c-0.01-0.01-0.01-0.01-0.02-0.02
			c-0.63-0.55-1.26-1-2-1.4c-0.01-0.01-0.02-0.01-0.03-0.02c-0.25-0.11-0.51-0.22-0.76-0.32c-1.3-0.47-2.59-0.65-3.96-0.76
			c-0.49-0.04-0.99-0.05-1.48-0.06c-2.06-0.02-4.11,0-6.17,0V32.1z"/>
		<path class="st4" d="M10.32,11.45c0.48,0,0.95,0.03,1.43,0.07c1.69,0.13,3.21,0.36,4.68,1.23c0.7,0.42,1.16,0.88,1.58,1.59
			c0.93,1.55,1.02,3.53,0.1,5.1c-0.23,0.4-0.53,0.72-0.89,1.01c-0.59,0.47-1.22,0.76-1.93,1c-0.32,0.11-0.33,0.1-0.34,0.11
			c0.72,0.19,1.39,0.41,2.06,0.77c0.43,0.23,0.78,0.5,1.12,0.85c0.44,0.46,0.72,0.92,0.93,1.53c0.23,0.66,0.28,1.29,0.23,1.98
			c-0.06,0.97-0.32,1.74-0.85,2.56c-0.09,0.14-0.2,0.27-0.31,0.4c-0.53,0.61-1.1,1.08-1.82,1.43c-0.94,0.47-1.87,0.71-2.91,0.85
			c-0.67,0.09-1.35,0.15-2.02,0.16c-3.12,0.04-6.24,0-9.35,0V11.45C4.79,11.45,7.55,11.43,10.32,11.45 M6.62,19.72v-5
			c1.43,0,2.86-0.03,4.29,0.01c1.11,0.03,2.16,0.14,2.84,1.09c0.56,0.78,0.56,1.81,0.02,2.6c-0.37,0.54-0.87,0.83-1.51,0.97
			C10.4,19.81,8.53,19.72,6.62,19.72z M14.55,27.17c-0.31,0.99-1.25,1.5-2.22,1.64c-1.88,0.27-3.82,0.15-5.71,0.13v-5.33
			c1.95,0,3.9-0.08,5.81,0.26c0.66,0.12,1.25,0.34,1.71,0.85c0.18,0.2,0.35,0.46,0.4,0.74c0,0.03,0,0.06,0.02,0.08
			c0,0,0.02-0.01,0.02,0c0.1,0.54,0.11,1.01,0,1.56c0,0.01-0.01-0.01-0.02,0C14.55,27.12,14.55,27.15,14.55,27.17z"/>
		<path class="st4" d="M70.46,9.38c-0.17-0.18-0.37-0.3-0.56-0.45C69.63,8.81,69.54,8.86,69.31,9c-0.2,0.17-0.36,0.32-0.4,0.34
			c0-0.16-0.14-0.34-0.21-0.49c-0.02-0.13-0.02-0.13-0.03-0.34c0.25,0,0.25,0.17,0.46,0.29c0-0.1,0.01-0.2,0.01-0.3
			c0.18-0.16,0.34-0.34,0.56-0.43c0.21,0.08,0.4,0.27,0.57,0.43c0,0.1,0.01,0.2,0.01,0.3c0.15-0.14,0.23-0.29,0.45-0.29
			c-0.01,0.12-0.02,0.24-0.03,0.37c-0.09,0.17-0.19,0.31-0.21,0.5H70.46z"/>
		<path class="st4" d="M68.85,10c0.02,0.02,0.02,0.02,0.03-0.44c0.24-0.22,0.46-0.49,0.77-0.58c0.33,0.04,0.59,0.38,0.82,0.59
			c0.01,0.14,0.01,0.29,0.02,0.43c0.21-0.21,0.32-0.4,0.63-0.4c-0.02,0.38-0.05,0.6-0.28,0.92c-0.08-0.1-0.08-0.1-0.68-0.64
			c-0.41-0.29-0.58-0.25-0.95,0.03c-0.22,0.19-0.43,0.38-0.65,0.57c-0.01,0.05-0.02,0.11-0.03,0.16c-0.11-0.2-0.28-0.41-0.33-0.64
			c0-0.13,0-0.26,0-0.39C68.52,9.59,68.64,9.8,68.85,10"/>
		<path class="st4" d="M70.21,10.87c-0.31-0.18-0.35-0.23-0.69-0.2c-0.46,0.26-0.81,0.64-1.22,0.98v0.17h-0.03
			c-0.14-0.27-0.28-0.51-0.37-0.8c0-0.15-0.01-0.3-0.01-0.45c0.4,0,0.51,0.23,0.78,0.53c0,0.02,0,0.02,0.04,0.02v-0.59
			c0.28-0.26,0.56-0.53,0.88-0.73c0.16-0.03,0.27,0.03,0.41,0.11c0.39,0.32,0.39,0.32,0.7,0.62c0.01,0.19,0.02,0.39,0.02,0.58
			c0.17-0.19,0.32-0.37,0.53-0.52c0.08,0,0.09-0.02,0.26-0.02c0,0.14-0.01,0.28-0.01,0.42c-0.09,0.33-0.22,0.59-0.38,0.89h-0.02
			v-0.23C71,11.58,70.32,10.97,70.21,10.87"/>
		<path class="st4" d="M67.44,12.24v-0.48c0.13,0.01,0.22,0.03,0.35,0.05c0.18,0.16,0.18,0.16,0.64,0.61c0-0.24,0.01-0.47,0.01-0.71
			c0.31-0.27,0.61-0.53,0.92-0.79c0.35-0.21,0.49-0.09,0.81,0.11c0.16,0.14,0.64,0.58,0.77,0.68c0,0.24,0.01,0.47,0.01,0.7
			c0.36-0.37,0.49-0.62,0.98-0.66c-0.01,0.25-0.01,0.48-0.05,0.73c-0.1,0.26-0.1,0.26-0.25,0.57c-0.1,0.1-0.2,0.2-0.3,0.3
			c-0.01-0.18-0.02-0.35-0.02-0.53c-0.29-0.26-0.58-0.53-0.87-0.79c-0.43-0.33-0.66-0.5-1.18-0.22c-0.4,0.3-0.76,0.65-1.13,0.99
			c-0.01,0-0.02,0-0.04,0.01c0,0.19-0.01,0.37-0.01,0.56C67.76,13.02,67.48,12.72,67.44,12.24"/>
		<path class="st4" d="M68.22,13.71c0.01-0.28,0.02-0.56,0.02-0.84c0.39-0.36,0.78-0.78,1.25-1.05c0.42-0.08,0.59,0.09,0.93,0.37
			c0.25,0.23,0.49,0.46,0.74,0.68c0.01,0.28,0.02,0.56,0.02,0.84c0.2-0.21,0.4-0.42,0.6-0.64c0.2-0.13,0.32-0.14,0.56-0.15v0.44
			c-0.05,0.4-0.13,0.62-0.31,0.98c-0.07,0.06-0.14,0.11-0.21,0.16c-0.06,0.07-0.31,0.33-0.36,0.39c-0.01-0.2-0.02-0.4-0.02-0.61
			c-0.48-0.46-0.93-0.92-1.52-1.24c-0.06,0-0.08-0.02-0.35-0.02c-0.02,0.02-0.08,0.02-0.35,0.17c-0.44,0.34-0.84,0.71-1.24,1.09
			c-0.01,0.2-0.01,0.4-0.02,0.61c-0.1-0.09-0.27-0.23-0.34-0.35c-0.54-0.43-0.57-0.97-0.56-1.62c0.24,0.02,0.36,0.03,0.55,0.15
			C67.82,13.28,68.02,13.49,68.22,13.71"/>
		<path class="st4" d="M71.77,16.66c-0.01-0.26-0.01-0.52-0.02-0.78c-0.54-0.51-1.14-1.16-1.83-1.47c-0.06,0-0.08-0.02-0.33-0.02
			c-0.02,0.02-0.02,0.02-0.22,0.08c-0.64,0.38-1.16,0.92-1.71,1.41h-0.02v0.77h-0.02c-0.04-0.05-0.09-0.09-0.13-0.13
			c-0.3-0.53-0.64-0.97-0.68-1.58v-0.56c0.31,0.03,0.4,0.04,0.66,0.21c0.2,0.22,0.41,0.44,0.61,0.66c0.01-0.3,0.01-0.6,0.02-0.91
			c0.45-0.41,0.87-0.87,1.4-1.16c0.45-0.09,0.7,0.19,1.04,0.46c0.25,0.23,0.5,0.46,0.75,0.69c0,0.3,0.01,0.61,0.01,0.91
			c0.01-0.01,0.02-0.02,0.03-0.03c0.27-0.3,0.59-0.82,1.04-0.82c0.02-0.02,0.02-0.02,0.19-0.02c0,0.51-0.02,0.89-0.24,1.35
			C72.16,16.05,72.03,16.41,71.77,16.66"/>
		<path class="st4" d="M66.27,16.6c0-0.2,0.01-0.41,0.01-0.62C66.57,16,66.76,16.02,67,16.2c0.25,0.27,0.51,0.54,0.77,0.81
			c0.01,0.02,0.01,0.02,0.03-1.06c0.51-0.46,1-1,1.6-1.35c0.35-0.11,0.49-0.06,0.82,0.13c0.47,0.38,0.92,0.79,1.37,1.2
			c0.01,0.37,0.01,0.73,0.02,1.1c0.22-0.24,0.44-0.47,0.66-0.71c0.28-0.26,0.45-0.3,0.83-0.33c0,0.15,0.01,0.31,0.01,0.46
			c-0.03,0.36-0.08,0.65-0.21,0.99c-0.18,0.35-0.37,0.7-0.55,1.05c0,0.05,0,0.09,0,0.14c0.05,0,0.11,0.01,0.16,0.01v1.48h-5.6v-1.48
			c0.05,0,0.1-0.01,0.15-0.01c0-0.05,0-0.09-0.01-0.14c-0.25-0.45-0.66-1.01-0.77-1.55C66.29,16.82,66.28,16.71,66.27,16.6"/>
	</g>
	<g>
		<path class="st4" d="M137.35,37.16v1.28h0.25c0.14,0,0.3-0.01,0.44-0.04c0.1-0.03,0.19-0.07,0.26-0.15
			c0.06-0.06,0.11-0.13,0.14-0.21c0.03-0.09,0.04-0.18,0.04-0.27c0-0.1-0.02-0.2-0.06-0.29c-0.04-0.08-0.09-0.14-0.17-0.19
			c-0.07-0.05-0.15-0.08-0.24-0.1c-0.11-0.02-0.24-0.03-0.35-0.03H137.35z M137.35,38.99v1.33h-0.61v-3.69h0.95
			c0.18,0,0.37,0.01,0.55,0.05c0.15,0.04,0.29,0.09,0.41,0.18c0.14,0.1,0.25,0.22,0.33,0.37c0.09,0.17,0.12,0.35,0.12,0.54
			c0,0.16-0.03,0.31-0.09,0.46c-0.06,0.14-0.13,0.27-0.24,0.38c-0.13,0.13-0.28,0.23-0.45,0.29c-0.2,0.08-0.43,0.1-0.65,0.1H137.35z
			"/>
		<polygon class="st4" points="140.04,39.76 141.62,39.76 141.62,40.31 139.43,40.31 139.43,36.62 140.04,36.62 		"/>
		<path class="st4" d="M143.26,40.31c-0.23,0-0.45-0.03-0.66-0.12c-0.2-0.08-0.38-0.2-0.53-0.35c-0.16-0.17-0.27-0.37-0.34-0.58
			c-0.09-0.25-0.12-0.52-0.12-0.79c0-0.26,0.03-0.53,0.12-0.77c0.07-0.21,0.19-0.41,0.34-0.58c0.15-0.16,0.32-0.28,0.53-0.37
			c0.21-0.09,0.44-0.13,0.68-0.13c0.11,0,0.23,0.01,0.34,0.03c0.1,0.02,0.2,0.04,0.3,0.07c0.08,0.02,0.16,0.06,0.24,0.09
			c0.08,0.04,0.16,0.08,0.24,0.12l0.03,0.02v0.65h-0.13l-0.02-0.02c-0.05-0.04-0.1-0.09-0.16-0.13c-0.07-0.06-0.15-0.1-0.23-0.14
			c-0.09-0.05-0.18-0.08-0.28-0.11c-0.11-0.03-0.23-0.04-0.35-0.04c-0.14,0-0.27,0.03-0.4,0.08c-0.13,0.06-0.24,0.14-0.33,0.25
			c-0.11,0.12-0.17,0.27-0.22,0.42c-0.06,0.19-0.08,0.38-0.08,0.58c0,0.2,0.02,0.4,0.08,0.59c0.05,0.15,0.12,0.29,0.23,0.41
			c0.09,0.1,0.2,0.19,0.32,0.24c0.12,0.06,0.26,0.08,0.39,0.08c0.12,0,0.24-0.01,0.36-0.05c0.1-0.03,0.2-0.07,0.29-0.12
			c0.07-0.04,0.15-0.09,0.22-0.14c0.05-0.04,0.1-0.08,0.14-0.12l0.02-0.02h0.13v0.65l-0.04,0.02c-0.07,0.03-0.15,0.07-0.22,0.1
			c-0.08,0.04-0.17,0.07-0.26,0.1c-0.1,0.03-0.2,0.06-0.29,0.08C143.5,40.31,143.38,40.31,143.26,40.31"/>
		<rect x="144.83" y="39.5" class="st4" width="0.7" height="0.81"/>
		<path class="st4" d="M72.94,36.69h0.64l0.94,2.82l0.94-2.82h0.62l-1.26,3.69h-0.61l-1.24-3.63v0.49h-1.74v0.84h1.63v0.56h-1.63
			v1.19h1.74v0.56h-2.35v-3.69H72.94z M3.97,38.32c0.16,0.06,0.29,0.16,0.4,0.3c0.13,0.18,0.18,0.39,0.18,0.61
			c0,0.17-0.03,0.34-0.11,0.5c-0.07,0.14-0.16,0.26-0.29,0.36c-0.14,0.11-0.29,0.19-0.45,0.24c-0.19,0.05-0.41,0.07-0.61,0.07H2.02
			v-3.69h1.01c0.11,0,0.22,0,0.34,0.01c0.08,0,0.16,0.01,0.24,0.02c0.14,0.02,0.26,0.06,0.39,0.13c0.13,0.07,0.24,0.17,0.31,0.3
			c0.07,0.13,0.09,0.28,0.09,0.42c0,0.18-0.04,0.34-0.14,0.49C4.18,38.16,4.08,38.25,3.97,38.32z M6.68,39.4H5.42L5.1,40.39H4.48
			l1.24-3.69H6.4l1.24,3.69H7L6.68,39.4z M8.38,37.53v2.86H7.81v-3.69h0.77L9.9,39.3v-2.61h0.57v3.69H9.84L8.38,37.53z M11.81,38.77
			l-0.14,0.15v1.46h-0.61v-3.69h0.61v1.54l1.36-1.54h0.75l-1.53,1.66l1.6,2.03h-0.78L11.81,38.77z M16.05,37.25v0.87h1.57v0.55
			h-1.57v1.71h-0.61v-3.69h2.25v0.55H16.05z M20.61,37.12c0.15,0.18,0.26,0.38,0.33,0.6c0.08,0.26,0.11,0.54,0.11,0.81
			c0,0.27-0.03,0.54-0.11,0.8c-0.07,0.22-0.18,0.43-0.33,0.61c-0.15,0.17-0.32,0.3-0.53,0.38c-0.21,0.09-0.43,0.12-0.66,0.12
			c-0.23,0-0.46-0.04-0.68-0.13c-0.2-0.09-0.38-0.21-0.52-0.38c-0.15-0.18-0.26-0.39-0.33-0.61c-0.08-0.26-0.11-0.53-0.11-0.8
			c0-0.27,0.03-0.55,0.11-0.81c0.07-0.22,0.18-0.43,0.33-0.61c0.14-0.17,0.32-0.29,0.52-0.38c0.21-0.09,0.44-0.13,0.67-0.13
			c0.23,0,0.46,0.04,0.68,0.13C20.29,36.84,20.46,36.96,20.61,37.12z M22.47,38.97h-0.44v1.42h-0.6v-3.69h0.98
			c0.17,0,0.35,0.01,0.52,0.03c0.15,0.02,0.29,0.08,0.42,0.17c0.13,0.09,0.24,0.2,0.31,0.33c0.09,0.15,0.12,0.33,0.12,0.5
			c0,0.25-0.06,0.49-0.21,0.7c-0.13,0.17-0.29,0.29-0.48,0.38l1.29,1.59h-0.78L22.47,38.97z M26.28,39.89v-2.7h-0.45v-0.5h1.51v0.5
			h-0.45v2.7h0.45v0.5h-1.51v-0.5H26.28z M28.36,37.53v2.86h-0.57v-3.69h0.77l1.32,2.61v-2.61h0.57v3.69h-0.63L28.36,37.53z
			 M32.21,39.51l0.94-2.82h0.62l-1.26,3.69H31.9l-1.26-3.69h0.64L32.21,39.51z M34.55,37.25v0.84h1.63v0.56h-1.63v1.19h1.74v0.56
			h-2.35v-3.69h2.35v0.55H34.55z M37.73,40.45c-0.22,0-0.46-0.02-0.67-0.08c-0.18-0.05-0.35-0.12-0.52-0.2l-0.04-0.02v-0.7h0.13
			l0.02,0.02c0.15,0.14,0.32,0.25,0.51,0.33c0.17,0.07,0.35,0.12,0.54,0.12c0.18,0,0.4-0.03,0.55-0.15c0.12-0.1,0.17-0.22,0.17-0.38
			c0-0.11-0.02-0.22-0.09-0.31c-0.07-0.09-0.19-0.14-0.3-0.17c-0.1-0.03-0.2-0.06-0.3-0.08c-0.11-0.03-0.23-0.06-0.34-0.09
			c-0.12-0.03-0.23-0.07-0.34-0.13c-0.1-0.05-0.19-0.12-0.27-0.21c-0.08-0.09-0.14-0.19-0.18-0.3c-0.05-0.13-0.06-0.26-0.06-0.39
			c0-0.31,0.12-0.57,0.36-0.78c0.25-0.22,0.56-0.31,0.9-0.31c0.19,0,0.39,0.02,0.58,0.06c0.17,0.04,0.34,0.1,0.51,0.18l0.04,0.02
			v0.68h-0.13l-0.02-0.02c-0.12-0.11-0.27-0.19-0.41-0.26c-0.17-0.07-0.34-0.11-0.53-0.11c-0.17,0-0.35,0.03-0.49,0.14
			c-0.12,0.09-0.18,0.2-0.18,0.35c0,0.11,0.02,0.23,0.1,0.32c0.08,0.09,0.2,0.14,0.31,0.17c0.12,0.03,0.24,0.06,0.36,0.09
			c0.12,0.03,0.24,0.06,0.36,0.1c0.22,0.07,0.43,0.18,0.57,0.36c0.13,0.18,0.18,0.38,0.18,0.6c0,0.15-0.03,0.3-0.09,0.44
			c-0.06,0.14-0.14,0.26-0.25,0.37c-0.12,0.11-0.26,0.19-0.41,0.25C38.11,40.43,37.91,40.45,37.73,40.45z M40.22,37.25h-1.19v-0.55
			h2.98v0.55h-1.19v3.14h-0.6V37.25z M44.79,37.57l-0.81,1.84h-0.37l-0.8-1.84v2.82h-0.57v-3.69h0.75l0.84,1.88l0.81-1.88h0.77v3.69
			h-0.61V37.57z M46.59,37.25v0.84h1.63v0.56h-1.63v1.19h1.74v0.56h-2.35v-3.69h2.35v0.55H46.59z M49.28,37.53v2.86h-0.57v-3.69
			h0.77l1.32,2.61v-2.61h0.57v3.69h-0.63L49.28,37.53z M52.79,37.25H51.6v-0.55h2.98v0.55H53.4v3.14h-0.61V37.25z M58.11,39.4h-1.26
			l-0.32,0.99h-0.62l1.24-3.69h0.68l1.24,3.69h-0.64L58.11,39.4z M59.82,37.53v2.86h-0.57v-3.69h0.77l1.32,2.61v-2.61h0.57v3.69
			h-0.63L59.82,37.53z M65.41,38.54c0,0.32-0.06,0.63-0.2,0.91c-0.13,0.26-0.31,0.48-0.55,0.64c-0.17,0.11-0.36,0.19-0.57,0.24
			c-0.23,0.05-0.48,0.06-0.72,0.06H62.5v-3.69h0.87c0.26,0,0.55,0.01,0.8,0.08c0.18,0.05,0.35,0.12,0.5,0.22
			c0.24,0.16,0.42,0.37,0.55,0.63C65.36,37.9,65.41,38.22,65.41,38.54z M70.24,38.54c0,0.32-0.06,0.63-0.2,0.91
			c-0.13,0.26-0.31,0.48-0.55,0.64c-0.17,0.11-0.36,0.19-0.57,0.24c-0.23,0.05-0.48,0.06-0.72,0.06h-0.88v-3.69h0.87
			c0.26,0,0.55,0.01,0.8,0.08c0.18,0.05,0.35,0.12,0.5,0.22c0.24,0.16,0.42,0.37,0.55,0.63C70.18,37.9,70.24,38.22,70.24,38.54z
			 M76.86,37.25v0.84h1.63v0.56h-1.63v1.19h1.74v0.56h-2.35v-3.69h2.35v0.55H76.86z M79.59,39.83h1.58v0.56h-2.19v-3.69h0.6V39.83z
			 M83.99,37.12c0.15,0.18,0.26,0.38,0.33,0.6c0.08,0.26,0.11,0.54,0.11,0.81c0,0.27-0.03,0.54-0.11,0.8
			c-0.07,0.22-0.17,0.43-0.33,0.61c-0.15,0.17-0.33,0.3-0.53,0.38c-0.21,0.09-0.44,0.12-0.66,0.12c-0.23,0-0.46-0.04-0.67-0.13
			c-0.2-0.09-0.38-0.21-0.52-0.38c-0.15-0.18-0.26-0.39-0.33-0.61c-0.08-0.26-0.11-0.53-0.11-0.8c0-0.27,0.03-0.55,0.11-0.81
			c0.07-0.22,0.18-0.43,0.33-0.61c0.14-0.17,0.32-0.29,0.52-0.38c0.21-0.09,0.44-0.13,0.67-0.13c0.23,0,0.46,0.04,0.68,0.13
			C83.67,36.84,83.85,36.96,83.99,37.12z M85.42,39.06v1.33h-0.61v-3.69h0.96c0.18,0,0.37,0.01,0.55,0.05
			c0.15,0.04,0.29,0.09,0.41,0.18c0.14,0.1,0.25,0.22,0.33,0.37c0.09,0.16,0.12,0.35,0.12,0.54c0,0.16-0.03,0.32-0.09,0.46
			c-0.06,0.14-0.13,0.27-0.24,0.38c-0.13,0.13-0.28,0.23-0.45,0.29c-0.2,0.08-0.43,0.1-0.65,0.1H85.42z M90.06,37.57l-0.81,1.84
			h-0.37l-0.8-1.84v2.82h-0.57v-3.69h0.75l0.84,1.88l0.81-1.88h0.77v3.69h-0.61V37.57z M91.85,37.25v0.84h1.63v0.56h-1.63v1.19h1.74
			v0.56h-2.35v-3.69h2.35v0.55H91.85z M94.55,37.53v2.86h-0.57v-3.69h0.77l1.32,2.61v-2.61h0.57v3.69H96L94.55,37.53z M98.05,37.25
			h-1.19v-0.55h2.98v0.55h-1.19v3.14h-0.61V37.25z M104.21,37.12c0.15,0.18,0.26,0.38,0.33,0.6c0.08,0.26,0.12,0.54,0.12,0.81
			c0,0.27-0.03,0.54-0.11,0.8c-0.07,0.22-0.17,0.43-0.33,0.61c-0.15,0.17-0.33,0.3-0.53,0.38c-0.21,0.09-0.43,0.12-0.66,0.12
			c-0.23,0-0.46-0.04-0.67-0.13c-0.2-0.09-0.38-0.21-0.52-0.38c-0.15-0.18-0.26-0.39-0.33-0.61c-0.08-0.26-0.11-0.53-0.11-0.8
			c0-0.27,0.03-0.55,0.11-0.81c0.07-0.22,0.18-0.43,0.33-0.61c0.14-0.17,0.32-0.29,0.52-0.38c0.22-0.09,0.44-0.13,0.67-0.13
			c0.23,0,0.46,0.04,0.68,0.13C103.9,36.84,104.07,36.96,104.21,37.12z M105.64,37.25v0.87h1.57v0.55h-1.57v1.71h-0.61v-3.69h2.25
			v0.55H105.64z M2.63,37.23v0.91H3.1c0.1,0,0.22,0,0.31-0.02c0.07-0.02,0.13-0.05,0.19-0.09c0.06-0.04,0.1-0.09,0.13-0.15
			c0.03-0.08,0.04-0.17,0.04-0.25c0-0.07-0.01-0.13-0.04-0.19c-0.02-0.05-0.06-0.09-0.11-0.12c-0.07-0.04-0.15-0.06-0.23-0.07
			c-0.12-0.01-0.26-0.01-0.38-0.01H2.63z M2.63,38.67v1.18h0.32c0.16,0,0.32,0,0.48-0.03c0.1-0.02,0.2-0.05,0.29-0.11
			c0.07-0.05,0.13-0.11,0.17-0.19c0.04-0.08,0.05-0.19,0.05-0.28c0-0.1-0.01-0.21-0.05-0.3c-0.04-0.09-0.12-0.15-0.2-0.19
			c-0.03-0.02-0.07-0.03-0.1-0.04c-0.04-0.01-0.08-0.02-0.12-0.02c-0.05-0.01-0.1-0.01-0.15-0.01c-0.07,0-0.14,0-0.21,0H2.63z
			 M6.5,38.85l-0.45-1.39L5.6,38.85H6.5z M20.42,38.54c0-0.2-0.02-0.41-0.07-0.61c-0.04-0.15-0.11-0.3-0.2-0.43
			c-0.08-0.11-0.19-0.2-0.31-0.26c-0.13-0.06-0.27-0.09-0.42-0.09c-0.14,0-0.29,0.02-0.42,0.08c-0.13,0.06-0.23,0.15-0.32,0.26
			c-0.1,0.13-0.16,0.28-0.2,0.43c-0.05,0.2-0.07,0.4-0.07,0.6c0,0.35,0.05,0.75,0.28,1.03c0.19,0.24,0.43,0.35,0.73,0.35
			c0.3,0,0.54-0.11,0.73-0.35C20.37,39.29,20.42,38.89,20.42,38.54z M22.03,37.24v1.2h0.35c0.12,0,0.24-0.01,0.35-0.03
			c0.09-0.02,0.17-0.06,0.24-0.13c0.06-0.06,0.11-0.13,0.13-0.21c0.03-0.1,0.05-0.2,0.05-0.3c0-0.09-0.01-0.17-0.05-0.25
			c-0.03-0.07-0.08-0.12-0.15-0.17c-0.06-0.04-0.13-0.07-0.21-0.09c-0.1-0.02-0.21-0.03-0.32-0.03H22.03z M57.93,38.85l-0.45-1.39
			l-0.45,1.39H57.93z M63.1,37.24v2.61h0.29c0.18,0,0.36-0.01,0.53-0.05c0.15-0.03,0.28-0.09,0.4-0.18
			c0.15-0.11,0.27-0.24,0.34-0.41c0.09-0.2,0.12-0.44,0.12-0.67c0-0.23-0.03-0.46-0.13-0.67c-0.08-0.18-0.21-0.32-0.38-0.42
			c-0.12-0.07-0.24-0.13-0.38-0.16c-0.17-0.04-0.35-0.05-0.51-0.05H63.1z M67.92,37.24v2.61h0.29c0.18,0,0.36-0.01,0.53-0.05
			c0.15-0.03,0.28-0.09,0.4-0.18c0.15-0.11,0.27-0.24,0.34-0.41c0.09-0.2,0.12-0.44,0.12-0.67c0-0.23-0.03-0.46-0.13-0.67
			c-0.08-0.18-0.21-0.32-0.37-0.42c-0.12-0.07-0.25-0.13-0.38-0.16c-0.17-0.04-0.35-0.05-0.51-0.05H67.92z M83.81,38.54
			c0-0.2-0.02-0.41-0.07-0.61c-0.04-0.15-0.11-0.3-0.2-0.43c-0.08-0.11-0.19-0.2-0.31-0.26c-0.13-0.06-0.27-0.09-0.42-0.09
			c-0.14,0-0.29,0.02-0.42,0.08c-0.12,0.06-0.23,0.15-0.31,0.26c-0.1,0.13-0.16,0.28-0.2,0.43c-0.05,0.2-0.07,0.4-0.07,0.6
			c0,0.35,0.06,0.75,0.28,1.03c0.19,0.24,0.43,0.35,0.73,0.35c0.3,0,0.55-0.11,0.73-0.35C83.75,39.29,83.81,38.89,83.81,38.54z
			 M85.42,37.24v1.28h0.25c0.14,0,0.3-0.01,0.44-0.04c0.1-0.03,0.19-0.07,0.26-0.15c0.06-0.06,0.11-0.13,0.13-0.21
			c0.03-0.09,0.04-0.18,0.04-0.27c0-0.1-0.01-0.2-0.05-0.29c-0.04-0.08-0.09-0.14-0.17-0.19c-0.07-0.05-0.15-0.08-0.24-0.09
			c-0.11-0.02-0.24-0.03-0.35-0.03H85.42z M104.03,38.54c0-0.2-0.02-0.41-0.07-0.61c-0.04-0.15-0.11-0.3-0.2-0.43
			c-0.08-0.11-0.19-0.2-0.31-0.26c-0.13-0.06-0.27-0.09-0.42-0.09c-0.14,0-0.29,0.02-0.42,0.08c-0.13,0.06-0.23,0.15-0.32,0.26
			c-0.1,0.13-0.16,0.28-0.2,0.43c-0.05,0.2-0.07,0.4-0.07,0.6c0,0.35,0.06,0.75,0.28,1.03c0.19,0.24,0.43,0.35,0.73,0.35
			c0.3,0,0.54-0.11,0.73-0.35C103.98,39.29,104.03,38.89,104.03,38.54z"/>
		<polygon class="st4" points="118.92,37.57 118.1,39.41 117.73,39.41 116.93,37.57 116.93,40.39 116.36,40.39 116.36,36.69 
			117.11,36.69 117.95,38.58 118.76,36.69 119.52,36.69 119.52,40.39 118.92,40.39 		"/>
		<path class="st4" d="M120.71,38.67v1.18h0.31c0.16,0,0.32,0,0.48-0.03c0.1-0.02,0.2-0.05,0.28-0.11c0.07-0.05,0.14-0.11,0.17-0.19
			c0.04-0.08,0.05-0.19,0.05-0.28c0-0.1-0.01-0.21-0.05-0.3c-0.04-0.09-0.12-0.15-0.2-0.19c-0.03-0.02-0.07-0.03-0.1-0.04
			c-0.04-0.01-0.08-0.02-0.12-0.02c-0.05-0.01-0.1-0.01-0.15-0.01c-0.07,0-0.14,0-0.21,0H120.71z M120.71,37.23v0.91h0.47
			c0.1,0,0.22,0,0.31-0.02c0.07-0.02,0.13-0.05,0.2-0.09c0.06-0.04,0.1-0.09,0.12-0.15c0.03-0.08,0.04-0.17,0.04-0.25
			c0-0.07-0.01-0.13-0.04-0.19c-0.02-0.05-0.06-0.09-0.11-0.12c-0.07-0.04-0.15-0.06-0.23-0.07c-0.12-0.01-0.26-0.01-0.38-0.01
			H120.71z M122.06,38.32c0.16,0.06,0.29,0.16,0.4,0.3c0.13,0.18,0.18,0.39,0.18,0.61c0,0.17-0.03,0.34-0.11,0.5
			c-0.07,0.14-0.16,0.26-0.29,0.36c-0.13,0.11-0.28,0.19-0.45,0.24c-0.19,0.05-0.41,0.07-0.61,0.07h-1.08v-3.69h1.01
			c0.11,0,0.22,0,0.34,0.01c0.08,0,0.16,0.01,0.24,0.02c0.14,0.02,0.26,0.06,0.39,0.13c0.13,0.07,0.24,0.17,0.31,0.3
			c0.07,0.13,0.1,0.28,0.1,0.42c0,0.18-0.05,0.34-0.14,0.49C122.26,38.16,122.17,38.25,122.06,38.32z"/>
		<path class="st4" d="M125.44,38.54c0-0.2-0.02-0.41-0.07-0.61c-0.04-0.15-0.11-0.3-0.2-0.43c-0.09-0.11-0.19-0.2-0.32-0.26
			c-0.13-0.06-0.27-0.09-0.42-0.09c-0.14,0-0.29,0.02-0.42,0.08c-0.13,0.06-0.23,0.15-0.31,0.26c-0.1,0.13-0.16,0.28-0.2,0.43
			c-0.05,0.2-0.07,0.4-0.07,0.6c0,0.35,0.06,0.75,0.28,1.03c0.19,0.24,0.43,0.35,0.73,0.35c0.3,0,0.55-0.11,0.73-0.35
			C125.38,39.29,125.44,38.89,125.44,38.54 M125.62,37.12c0.15,0.18,0.26,0.38,0.33,0.6c0.08,0.26,0.11,0.54,0.11,0.81
			c0,0.27-0.03,0.54-0.11,0.8c-0.07,0.22-0.18,0.43-0.33,0.61c-0.15,0.17-0.32,0.3-0.53,0.38c-0.21,0.09-0.44,0.12-0.66,0.12
			c-0.23,0-0.46-0.04-0.67-0.13c-0.2-0.09-0.38-0.21-0.52-0.38c-0.15-0.18-0.26-0.39-0.33-0.61c-0.08-0.26-0.11-0.53-0.11-0.8
			c0-0.27,0.03-0.55,0.11-0.81c0.07-0.22,0.18-0.43,0.33-0.61c0.14-0.17,0.32-0.29,0.52-0.38c0.21-0.09,0.44-0.13,0.67-0.13
			c0.23,0,0.46,0.04,0.68,0.13C125.31,36.84,125.48,36.96,125.62,37.12z"/>
		<polygon class="st4" points="129.91,39.89 129.91,37.19 129.45,37.19 129.45,36.69 130.96,36.69 130.96,37.19 130.51,37.19 
			130.51,39.89 130.96,39.89 130.96,40.39 129.45,40.39 129.45,39.89 		"/>
		<path class="st4" d="M127.1,37.24v2.61h0.29c0.18,0,0.36-0.01,0.53-0.05c0.15-0.03,0.28-0.09,0.4-0.18
			c0.15-0.11,0.27-0.24,0.34-0.41c0.09-0.2,0.12-0.44,0.12-0.67c0-0.23-0.03-0.46-0.13-0.67c-0.08-0.18-0.21-0.32-0.38-0.42
			c-0.12-0.07-0.24-0.13-0.38-0.16c-0.17-0.04-0.35-0.05-0.51-0.05H127.1z M129.41,38.54c0,0.32-0.06,0.63-0.2,0.91
			c-0.13,0.26-0.31,0.48-0.55,0.64c-0.17,0.11-0.36,0.19-0.57,0.24c-0.23,0.05-0.48,0.06-0.72,0.06h-0.88v-3.69h0.87
			c0.26,0,0.55,0.01,0.8,0.08c0.18,0.05,0.35,0.12,0.5,0.22c0.24,0.16,0.42,0.37,0.55,0.63C129.36,37.9,129.41,38.22,129.41,38.54z"
			/>
		<path class="st4" d="M133.43,38.85l-0.45-1.39l-0.45,1.39H133.43z M133.61,39.4h-1.26l-0.32,0.99h-0.62l1.24-3.69h0.68l1.24,3.69
			h-0.64L133.61,39.4z"/>
		<path class="st4" d="M114.78,38.84l-0.45-1.39l-0.45,1.39H114.78z M112.97,39.77l1.03-3.08h0.68l1.24,3.7h-0.64l-0.32-0.99h-1.26
			l-0.32,0.99h-0.62L112.97,39.77z"/>
		<path class="st4" d="M112.37,40.21l-0.02,0.01c-0.07,0.04-0.15,0.07-0.22,0.11c-0.08,0.04-0.17,0.07-0.26,0.1
			c-0.1,0.03-0.19,0.06-0.29,0.08c-0.11,0.02-0.24,0.03-0.35,0.03c-0.23,0-0.45-0.04-0.67-0.12c-0.2-0.08-0.38-0.2-0.53-0.37
			c-0.16-0.17-0.27-0.38-0.34-0.6c-0.09-0.26-0.12-0.54-0.12-0.82c0-0.27,0.03-0.55,0.12-0.8c0.07-0.22,0.19-0.43,0.34-0.6
			c0.15-0.17,0.32-0.29,0.53-0.38c0.21-0.09,0.44-0.13,0.67-0.13c0.12,0,0.23,0.01,0.35,0.03c0.1,0.02,0.2,0.04,0.3,0.07
			c0.08,0.02,0.16,0.06,0.24,0.09c0.08,0.04,0.16,0.08,0.24,0.12l0.04,0.02v0.68h-0.13l-0.02-0.02c-0.05-0.05-0.1-0.09-0.16-0.13
			c-0.07-0.06-0.15-0.11-0.23-0.15c-0.09-0.05-0.19-0.09-0.28-0.11c-0.11-0.03-0.23-0.04-0.35-0.04c-0.14,0-0.27,0.03-0.4,0.09
			c-0.13,0.06-0.24,0.15-0.33,0.26c-0.1,0.12-0.17,0.28-0.22,0.43c-0.06,0.19-0.08,0.4-0.08,0.6c0,0.2,0.02,0.41,0.08,0.61
			c0.05,0.15,0.12,0.3,0.23,0.42c0.09,0.11,0.2,0.19,0.32,0.25c0.13,0.05,0.26,0.08,0.39,0.08c0.12,0,0.24-0.01,0.36-0.05
			c0.1-0.03,0.2-0.07,0.29-0.12c0.08-0.04,0.15-0.09,0.22-0.15c0.05-0.04,0.1-0.08,0.15-0.13l0.02-0.02h0.13v0.64L112.37,40.21z"/>
	</g>
</g>
</svg>
